<svg xmlns="http://www.w3.org/2000/svg" version="1.1" xmlns:xlink="http://www.w3.org/1999/xlink" xmlns:svgjs="http://svgjs.dev/svgjs" width="1000" height="623" viewBox="0 0 1000 623"><g transform="matrix(1,0,0,1,-0.6060606060606233,0.2522267206477409)"><svg viewBox="0 0 396 247" data-background-color="#ffffff" preserveAspectRatio="xMidYMid meet" height="623" width="1000" xmlns="http://www.w3.org/2000/svg" xmlns:xlink="http://www.w3.org/1999/xlink"><g id="tight-bounds" transform="matrix(1,0,0,1,0.2400000000000091,-0.09999999999999432)"><svg viewBox="0 0 395.52 247.2" height="247.2" width="395.52"><g><svg></svg></g><g><svg viewBox="0 0 395.52 247.2" height="247.2" width="395.52"><g transform="matrix(1,0,0,1,81.09578360655738,47.215199999999996)"><svg viewBox="0 0 233.32843278688523 152.7696" height="152.7696" width="233.32843278688523"><g><svg viewBox="0 0 233.32843278688523 152.7696" height="152.7696" width="233.32843278688523"><g><svg viewBox="0 0 233.32843278688523 152.7696" height="152.7696" width="233.32843278688523"><g><svg viewBox="0 0 233.32843278688523 152.7696" height="152.7696" width="233.32843278688523"><g id="textblocktransform"><svg viewBox="0 0 233.32843278688523 152.7696" height="152.7696" width="233.32843278688523" id="textblock"><g><svg viewBox="0 0 233.32843278688523 152.7696" height="152.7696" width="233.32843278688523"><g transform="matrix(1,0,0,1,0,0)"><svg width="233.32843278688523" viewBox="2.1500000953674316 -35.79999923706055 55.89999771118164 36.599998474121094" height="152.7696" data-palette-color="#1ebbd7"><path d="M26-23.8L22.7-23.8Q22.25-26.6 21.1-28.48 19.95-30.35 18.18-31.3 16.4-32.25 14.05-32.2L14.05-32.2Q11.9-32.2 10.28-31 8.65-29.8 8.65-27.9L8.65-27.9Q8.65-26.35 9.53-25.2 10.4-24.05 12.2-23.05 14-22.05 16.75-20.9L16.75-20.9Q18.65-20.15 20.65-19.15 22.65-18.15 24.35-16.78 26.05-15.4 27.1-13.58 28.15-11.75 28.15-9.3L28.15-9.3Q28.15-6.35 26.55-4.05 24.95-1.75 22.08-0.48 19.2 0.8 15.35 0.8L15.35 0.8Q13.35 0.8 11.03 0.18 8.7-0.45 6.65-1.65L6.65-1.65 6.8 0.45 2.95 0.45 2.95-11.25 6.25-11.25Q6.95-7.05 9.47-4.93 12-2.8 15.5-2.8L15.5-2.8Q17.3-2.8 18.65-3.45 20-4.1 20.75-5.18 21.5-6.25 21.5-7.5L21.5-7.5Q21.5-9.25 20.28-10.4 19.05-11.55 17.23-12.35 15.4-13.15 13.5-13.9L13.5-13.9Q11.1-14.9 9.03-16.03 6.95-17.15 5.4-18.6 3.85-20.05 3-21.93 2.15-23.8 2.15-26.25L2.15-26.25Q2.15-27.8 2.75-29.48 3.35-31.15 4.7-32.58 6.05-34 8.3-34.9 10.55-35.8 13.85-35.8L13.85-35.8Q15.85-35.8 18.23-35.2 20.6-34.6 22.3-33.4L22.3-33.4 22.1-35.45 26-35.45 26-23.8ZM55.9-23.8L52.6-23.8Q52.15-26.6 51-28.48 49.85-30.35 48.07-31.3 46.3-32.25 43.95-32.2L43.95-32.2Q41.8-32.2 40.17-31 38.55-29.8 38.55-27.9L38.55-27.9Q38.55-26.35 39.42-25.2 40.3-24.05 42.1-23.05 43.9-22.05 46.65-20.9L46.65-20.9Q48.55-20.15 50.55-19.15 52.55-18.15 54.25-16.78 55.95-15.4 57-13.58 58.05-11.75 58.05-9.3L58.05-9.3Q58.05-6.35 56.45-4.05 54.85-1.75 51.97-0.48 49.1 0.8 45.25 0.8L45.25 0.8Q43.25 0.8 40.92 0.18 38.6-0.45 36.55-1.65L36.55-1.65 36.7 0.45 32.85 0.45 32.85-11.25 36.15-11.25Q36.85-7.05 39.37-4.93 41.9-2.8 45.4-2.8L45.4-2.8Q47.2-2.8 48.55-3.45 49.9-4.1 50.65-5.18 51.4-6.25 51.4-7.5L51.4-7.5Q51.4-9.25 50.17-10.4 48.95-11.55 47.12-12.35 45.3-13.15 43.4-13.9L43.4-13.9Q41-14.9 38.92-16.03 36.85-17.15 35.3-18.6 33.75-20.05 32.9-21.93 32.05-23.8 32.05-26.25L32.05-26.25Q32.05-27.8 32.65-29.48 33.25-31.15 34.6-32.58 35.95-34 38.2-34.9 40.45-35.8 43.75-35.8L43.75-35.8Q45.75-35.8 48.12-35.2 50.5-34.6 52.2-33.4L52.2-33.4 52-35.45 55.9-35.45 55.9-23.8Z" opacity="1" transform="matrix(1,0,0,1,0,0)" fill="#1ebbd7" class="undefined-text-0" data-fill-palette-color="primary" id="text-0"></path></svg></g></svg></g></svg></g></svg></g></svg></g></svg></g></svg></g><g><path d="M0 123.6c0-68.262 55.338-123.6 123.6-123.6 30.402 0 58.24 10.976 79.768 29.183l-11.147 0c-19.26-14.022-42.974-22.294-68.621-22.295-64.458 0-116.712 52.254-116.712 116.712 0 64.458 52.254 116.712 116.712 116.712 25.647 0 49.361-8.272 68.621-22.295l11.147 0c-21.528 18.206-49.366 29.183-79.768 29.183-68.262 0-123.6-55.338-123.6-123.6z" fill="#1ebbd7" stroke="transparent" data-fill-palette-color="tertiary"></path></g></svg></g><defs></defs></svg><rect width="395.52" height="247.2" fill="none" stroke="none" visibility="hidden"></rect></g></svg></g></svg>